# xmcd CD database file
#
# Track frame offsets:
#	150
#	32932
#	61069
#	75461
#	84797
#	112491
#	122511
#	141767
#	165450
#
# Disc length: 2595 seconds
#
# Revision: 0
# Processed by: cddbd v1.5.1PL0 Copyright (c) Steve Scherf et al.
# Submitted via: CDex 1.51
#
DISCID=6b0a2109
DTITLE=Glenn Naftchi - Journey
DYEAR=1998
DGENRE=New Age
TTITLE0=Texas
TTITLE1=Sunrise at Haleakala
TTITLE2=Waltz for My Sister
TTITLE3=Gotch's Game
TTITLE4=110 Bleecker St
TTITLE5=A Tadd Different
TTITLE6=Charlottesville Lullaby
TTITLE7=Lunch at Rhonda's
TTITLE8=Texas (reprise)
EXTD=YEAR: 1998
EXTT0=
EXTT1=
EXTT2=
EXTT3=
EXTT4=
EXTT5=
EXTT6=
EXTT7=
EXTT8=
PLAYORDER=
